<svg xmlns="http://www.w3.org/2000/svg" width="250.221" height="283.606" viewBox="-5 0 280.221 283.606">
  <defs>
    <style>
      .logo {
        fill: #3c8dbc;
      }

      .point {
        fill: #3c8dbc;
      }

      .edge {
        fill: none;
        stroke-width: 9;
        stroke: #3c8dbc;
        stroke-dasharray: 895;
        stroke-dashoffset: 0;
        animation: animate-buk 4s ease-in-out infinite;
      }

      @keyframes animate-buk{
        0%{
          stroke-dashoffset: 0;
        }
        80%{
          stroke-dashoffset: 895;
        }
        100%{
          stroke-dashoffset: 1790;
        }
      }
    </style>
  </defs>
  <g id="Grupo_13" data-name="Grupo 13" transform="translate(-814.717 -444.412)">
    <path id="Trazado_24" data-name="Trazado 24" class="logo" d="M202.133,129.538h10.845l-13.534,23.374a20.617,20.617,0,0,1,6.521,3.922c7.316,6.556,7.287,16.336,7.24,18.335v8.045h-9.843v-8.16q0-7.494-4.416-11.575t-12.582-4.08a42.078,42.078,0,0,0-5.26.336v23.479H171.27V104.937H181.1V150.9a32.8,32.8,0,0,1,9.4,0Z" transform="translate(809 442.063)"/>
    <path id="Trazado_25" data-name="Trazado 25" class="logo" d="M159.614,183.22H140.272q-12.42,0-17.783-3.692a14.087,14.087,0,0,1-6.1-7.777,44.993,44.993,0,0,1-1.285-11.9v-30.3h9.843v30.192c0,1.338.034,2.474.111,3.409a17.625,17.625,0,0,0,.782,3.581,9.682,9.682,0,0,0,1.9,3.577,10.354,10.354,0,0,0,3.581,2.46,13.749,13.749,0,0,0,5.7,1.059h12.75V129.545h9.838Z" transform="translate(809 442)"/>
    <path id="Trazado_26" data-name="Trazado 26" class="logo" d="M48.837,104.936H58.8v50.939q0,8.746,4.482,13.564t12.349,4.819q8.2,0,12.847-4.71t4.648-13.674q0-8.526-5.032-13.45t-13.242-4.938a19,19,0,0,0-12.069,3.993v-9.966a27.066,27.066,0,0,1,13.18-3.323q11.73,0,19.437,7.587t7.7,20.1q0,13.182-8.029,20.431T74.855,183.56q-11.616,0-18.82-7.525t-7.2-20.159v-50.94Z" transform="translate(809 442.064)"/>
    <path id="Trazado_27" data-name="Trazado 27" class="point" d="M36.832,146.962a5.414,5.414,0,1,1-5.409-5.408,5.412,5.412,0,0,1,5.409,5.408" transform="translate(809 439.446)"/>
    <path id="Trazado_28" data-name="Trazado 28" class="point" d="M36.832,146.962a5.414,5.414,0,1,1-5.409-5.408,5.412,5.412,0,0,1,5.409,5.408" transform="translate(1008 439.446)"/>
    <path id="Trazado_29" data-name="Trazado 29" class="edge" d="M125.218.345c2.25-.083,4.429.286,11,4S239.885,64.179,239.885,64.179s10,6.667,10.012,16.31,0,121.571,0,121.571a20.825,20.825,0,0,1-9.714,17.429c-10.143,6.286-104.964,60.571-104.964,60.571a24.111,24.111,0,0,1-9.917,2.868,22.631,22.631,0,0,1-11.083-2.868l-103.5-60.632s-9.917-6-10-18,0-121.417,0-121.417a20.414,20.414,0,0,1,9.375-16.318C19.551,57.71,107.885,7.012,114.635,3.429S122.968.429,125.218.345Z" transform="translate(814.532 444.571)"/>
  </g>
</svg>
